# xmcd CD database file
#
# Track frame offsets:
#	150
#	14474
#	31429
#	49542
#	67950
#	82363
#	97056
#	113408
#	131493
#	144004
#
# Disc length: 2070 seconds
#
# Revision: 0
# Processed by: cddbd v1.5.1PL2 Copyright (c) Steve Scherf et al.
# Submitted via: CDex 1.51
#
DISCID=7e08140a
DTITLE=Frosted Orange - My Love is a Leopard
DYEAR=2002
DGENRE=Blues
TTITLE0=Greater than her Parts
TTITLE1=One in Many
TTITLE2=Hey Ray
TTITLE3=St. James
TTITLE4=Bulldozer
TTITLE5=My Love is a Leopard
TTITLE6=Kamakastig Land
TTITLE7=Electric Train
TTITLE8=Repent
TTITLE9=Crawling King-Snake
EXTD=YEAR: 2002
EXTT0=
EXTT1=
EXTT2=
EXTT3=
EXTT4=
EXTT5=
EXTT6=
EXTT7=
EXTT8=
EXTT9=
PLAYORDER=
